<?xml version="1.0" encoding="UTF-8"?>
<svg id="Layer_2" data-name="Layer 2" xmlns="http://www.w3.org/2000/svg" viewBox="0 0 524.58 658.5">
  <g id="Layer_1-2" data-name="Layer 1">
    <g>
      <path d="M156.62,511.64c21.29-19.74,41.72-35.87,59.53-59.49,54.57-72.38,66.33-175.43,24.64-256.84-34.69-67.74-110.18-108.81-185.56-82.43-4.26,1.49-19.33,9.37-22.07,9.22-3.04-.16-4.75-3.98-4.02-6.82.51-2,9.22-12.94,11.21-15.4,118.64-146.58,333.38-127.47,434.17,28.61,104.02,161.09,41.27,441.55-144.95,514.86-58,22.83-162.95,26.64-196.8-37.43-20.54-38.88-4.98-67.56,23.85-94.29Z"/>
      <path d="M110.46,156.28c11.91-.77,33.33,1.49,43.39,8.51,3.88,2.71,4.67,4.76,3.72,9.5-1.57,7.86-7.43,19.04-9.84,27.89-11.26,41.31-6.6,89.53,14.67,126.66,13.73,23.98,34.84,37.59,28.2,70.58-10.18,50.57-79.54,40.3-112.6,23.11C-36.96,362.74-23.78,164.94,110.46,156.28Z"/>
    </g>
  </g>
</svg>