<?xml version="1.0" encoding="UTF-8"?>
<svg id="Layer_2" data-name="Layer 2" xmlns="http://www.w3.org/2000/svg" viewBox="0 0 2852.43 1417">
  <g id="Layer_1-2" data-name="Layer 1">
    <g>
      <g>
        <path d="M636.91,128.33c169.24-8.14,131.99,223.39,143.06,328.87,2.85,27.17,8.15,60.35,14.4,86.93,7.33,31.14,45.81,99.74-8.74,106.17-36.65,4.32-137.78,4.31-174.46.01-56.78-6.65-14.95-90.17-7.88-125.6,12.49-62.61,31.6-186.45,9.16-244.53-17.48-45.24-75.91-60.28-106.31-18.81-43.18,58.9-14.58,216.08,2.08,285.17,7.51,31.14,45.54,97.26-10.37,103.77-36.06,4.2-134.39,4.22-170.42,0-24.99-2.93-31.75-18.85-30.36-42.53,1.81-30.88,22.05-82.4,27.78-118.31,9.35-58.66,25.76-175.72-8.15-225.66-22.34-32.9-67.43-35.73-94.32-6.52-41.68,45.29-23.83,178.18-13.15,235.59,6.61,35.57,26.36,77.35,30.88,106.91,4.49,29.31-3.38,47.83-34,50.62-38.7,3.53-128.74,4.38-166.47-.1-55.97-6.64-18.97-74.98-12.03-109.49,13.54-67.31,33.97-222.81-2.72-281.1-11.31-17.96-41.03-33.88-13.62-59.51,11.1-10.37,93.31-45.5,112.87-53.31,18.96-7.57,45.19-23.62,63.48-9.35,19.84,15.48-3.87,84.35,17.65,82.51,19.23-10.26,29.93-31.37,47.2-46.16,61.49-52.66,160.57-65.94,207.54,11.44,5.55,9.15,14.01,40.97,25.03,38.97,6.08-1.1,33.98-38.12,43.06-46.35,27.69-25.09,70.99-47.83,108.79-49.65Z"/>
        <path d="M2049.23,523.56c4.77,5.01,29.38,12.28,37.43,13.19,84.24,9.53,239.73-17.27,307.37,33.11,70.68,52.65,62.85,174.23,2.88,232.52-25.2,24.49-103.36,63.23-137.01,47.51-34.07-15.91,26.29-47.25,37.64-61.77,42.51-54.41-3.49-102.34-61.32-109.09-77.9-9.09-242.32,25.29-287.08-57.45-25.84-47.77-14.77-100.56,28.8-132.8,11.53-8.53,50.31-23.05,50.22-35.2-.07-8.99-30.25-23.35-38.66-30.44-52.06-43.88-64.73-123.23-39.32-185.06,39.46-96,172.17-124.44,264.45-104.77,12.33-13.55,15.45-31.79,24.87-47.72,29.22-49.41,106.54-112.3,165.18-73.57,27.65,18.26,28.01,67.48,4.44,89.16-33.21,30.55-111.65-9.81-138.2,36.48-1.47,14.43,28.16,23.33,40.39,32.59,114.64,86.87,63.89,256.26-69.54,294.56-55.74,16-141.89,1-180.32,18.29-15.3,6.88-24.83,27.17-12.2,40.44ZM2152.55,164.83c-79.18,4.29-75.97,158.05-58.68,210.7,21.92,66.75,88.59,88.82,118.39,15.22,22.39-55.32,29.63-230.75-59.71-225.92Z"/>
        <path d="M1516.17,132.28c60.56-11.43,14.58,66.62,47.63,92.28,36.38-36.55,80.99-84.75,134.81-92.11,192.21-26.27,147.46,199.43,159.1,317.1,2.68,27.09,8.1,56.58,14.09,83.19,7.7,34.19,48.23,110.11-7.88,117.68-33.55,4.53-140.23,3.93-174.56-.09-55.78-6.54-18.84-77.66-12.02-109.48,14.01-65.34,42.02-224.59,3.73-279.45-24.6-35.24-73.89-31.04-99.01,1.76-46.4,60.59-17.52,208.37.3,279.35,8.4,33.47,48.14,100.89-10.36,107.82-37.69,4.47-127.85,3.65-166.47.1-65.58-6.03-23.34-76.73-15.19-116.91,14.02-69.1,28.38-220.98-9.19-280.26-10.87-17.15-40.18-31.17-8.74-53.82,15.15-10.92,127.36-64.06,143.76-67.15Z"/>
        <path d="M1298.65,554.72c-23.95-97.93,20.08-305.62-45-372.63-85.31-87.73-395.78-74.46-385.1,81.26,5.18,75.92,115.9,96.31,136.14,18.29,9.39-36.1-4.37-85.31,34.48-107.32,87.41-49.7,146.5,95.67,61.83,150.87-87.57,57.3-228.4,50.34-255.6,178.06-31.73,148.92,139.54,193.76,241.85,116.22,7.93-5.99,32.21-37.07,40.79-30.11,3.07,22.01,4.2,53.9,31.24,60.05,17,3.72,110.08,3.56,128.69.65,49.04-7.77,17.16-68.47,10.68-95.34ZM1140.18,465.85c-3.41,34.16-23.47,96.31-62.97,103.11-91.46,15.54-98.1-88.38-54.39-143.58,17.64-22.34,66.53-53.58,93.88-60.22,5.02-1.13,23.47-5.83,23.47,3.4,0,30.27,3.07,67.99,0,97.29Z"/>
        <path d="M1479.64,736.39c6.95,10.88,6.28,23.51,3.19,35.58-6.08,23.77-35.63,73.79-46.79,103.16-46.23,121.63-105.16,397.64-186.27,482.53-53.59,56.09-151.94,80.27-220.28,37.65-85.41-53.26-43.63-193.83,54.77-156.11,25.24,9.68,38.91,44.15,62.69,58.91,57.15,35.47,118.66-19.34,129.24-76.16,1.6-8.61,7.13-48.13-8.23-44.76-23,31.33-66.14,39.41-90.59,5.39-63.27-135.66-106.51-280.71-181.37-410.76-1.08-30.11,11.32-41.99,40.7-44.72,41.51-3.86,137.96-4.65,178.58.08,56.61,6.6,12.89,65.05,10.05,91.26-6.57,60.56,21.15,172.34,47.87,227.78,41.95,87.06,66.12-8.35,77.48-49.74,15.31-55.78,34.81-137.05,9.16-190.93-9.7-20.36-46.03-50.8-11.76-71.08,17.8-10.53,118.11-12.44,131.56,1.92Z"/>
        <path d="M766.5,724.42c85.14-5.34,190.23,42.6,210.47,131.63,23.62,103.93-48.1,123.88-134.84,122.66-33.78-.48-107.49-17.15-135.29-1.86-36.9,20.3,13.89,81.13,34.83,98.28,52.1,42.66,127.94,46.5,181.6,4.66,15.04-11.73,36.44-49.26,57.25-32.7,16.72,31.42-4.15,73.44-21.78,100.59-49.01,75.49-147.31,103.38-232.96,89.26-275.53-45.43-258.91-493.74,40.72-512.53ZM754.05,768.71c-54.23,11.18-96.49,139.33-44.44,160.13,41.26,16.49,121.43-1.5,132.97-51.34,14.37-62.06-17.7-123.39-88.53-108.79Z"/>
        <path d="M1686.53,728.38c94.08-11.3,208.88,19.74,237.27,121.21,39.67,141.78-103.26,126.08-193.99,125.08-36.07-.4-107.84-19.43-84.84,44.34,33.57,93.09,159.48,116.74,232.61,54.45,12.16-10.36,36.38-52.23,51.05-21.95,19.25,39.74-28.84,110.98-59.14,135.45-107.96,87.16-287.75,64.62-358.45-58.36-86.03-149.66-7.69-378.23,175.5-400.22ZM1702.58,768.76c-50.77,8.7-73.26,86.48-67.93,130.85,4.43,36.9,49.32,37.3,78.69,33.92,115.06-13.26,99.61-183.68-10.75-164.77Z"/>
        <path d="M2161.29,735.71c-.19,29.91-28.65,28.18-31.69,63.03-6.78,77.67,107.36,92.89,161.85,120.96,86.63,44.63,145.96,115.35,103.22,216.88-53,125.9-267.37,130.33-373.62,81.89-77.76-35.45-43.31-173.21,20.65-166.89,44.77,4.42,47.94,98.55,83.88,131.26,56.35,51.29,149.96,18.25,132.44-67.59-20.29-99.45-249.03-92.11-269.69-224.82-17.19-110.46,68.84-177.91,172.95-154.73Z"/>
      </g>
      <g>
        <path d="M2560.08,536.86c16.91-15.68,33.15-28.5,47.3-47.27,43.36-57.5,52.7-139.39,19.58-204.07-27.56-53.82-87.55-86.46-147.44-65.49-3.38,1.18-15.36,7.44-17.53,7.33-2.42-.13-3.77-3.16-3.2-5.42.4-1.59,7.32-10.28,8.9-12.23,94.26-116.46,264.88-101.28,344.96,22.73,82.65,127.99,32.79,350.82-115.16,409.07-46.08,18.14-129.47,21.17-156.36-29.74-16.32-30.89-3.95-53.68,18.95-74.92Z"/>
        <path d="M2523.41,254.52c9.46-.61,26.48,1.18,34.48,6.76,3.08,2.15,3.71,3.78,2.96,7.54-1.25,6.24-5.9,15.13-7.82,22.16-8.95,32.83-5.24,71.13,11.66,100.64,10.91,19.05,27.68,29.87,22.4,56.08-8.09,40.18-63.19,32.02-89.46,18.36-91.35-47.5-80.87-204.66,25.79-211.54Z"/>
      </g>
    </g>
  </g>
</svg>